<svg width="350" height="350" viewBox="0 0 350 350" fill="none" xmlns="http://www.w3.org/2000/svg">
<path d="M296.819 244.998C298.781 241.6 300 237.772 300 234.334V114.997C300 111.559 298.783 107.731 296.82 104.333L175 174.666L296.819 244.998Z" fill="#00599C"/>
<path d="M185.825 312.752L289.175 253.084C292.152 251.365 294.858 248.397 296.819 244.998L175 174.666L53.1805 244.999C55.1421 248.397 57.8488 251.366 60.8252 253.084L164.175 312.752C170.128 316.19 179.872 316.19 185.825 312.752Z" fill="#004482"/>
<path d="M296.82 104.333C294.858 100.934 292.151 97.9657 289.175 96.2467L185.825 36.5784C179.872 33.1405 170.128 33.1405 164.175 36.5784L60.8252 96.2467C54.8709 99.6838 50 108.122 50 114.997V234.334C50 237.772 51.2181 241.6 53.1806 244.998L175 174.666L296.82 104.333Z" fill="#659AD2"/>
<path d="M175 257.999C129.05 257.999 91.6667 220.616 91.6667 174.666C91.6667 128.716 129.05 91.3325 175 91.3325C204.65 91.3325 232.303 107.288 247.166 132.973L211.101 153.842C203.663 140.986 189.828 132.999 175 132.999C152.025 132.999 133.333 151.69 133.333 174.666C133.333 197.641 152.025 216.333 175 216.333C189.83 216.333 203.664 208.346 211.104 195.487L247.168 216.355C232.306 242.042 204.652 257.999 175 257.999Z" fill="white"/>
<path d="M258.333 170.036H249.074V160.777H239.815V170.036H230.556V179.295H239.815V188.555H249.074V179.295H258.333V170.036Z" fill="white"/>
<path d="M293.056 170.036H283.796V160.777H274.538V170.036H265.278V179.295H274.538V188.555H283.796V179.295H293.056V170.036Z" fill="white"/>
</svg>
