<svg width="350" height="350" viewBox="0 0 350 350" fill="none" xmlns="http://www.w3.org/2000/svg">
<path d="M299.987 117.608C299.985 112.883 298.975 108.709 296.932 105.126C294.924 101.602 291.918 98.6492 287.886 96.3143C254.605 77.1238 221.29 57.992 188.019 38.7819C179.05 33.6036 170.353 33.7923 161.45 39.0451C148.202 46.8576 81.8782 84.8562 62.1145 96.3036C53.9752 101.015 50.0147 108.226 50.0127 117.599C50 156.192 50.0127 194.785 50 233.379C50 238 50.9694 242.093 52.9227 245.623C54.9309 249.253 57.9788 252.287 62.1037 254.674C81.8684 266.122 148.201 304.118 161.446 311.932C170.353 317.188 179.05 317.375 188.022 312.195C221.294 292.984 254.61 273.853 287.897 254.663C292.022 252.276 295.07 249.24 297.078 245.613C299.029 242.084 300 237.99 300 233.368C300 233.368 300 156.202 299.987 117.608Z" fill="#A179DC"/>
<path d="M175.382 175.113L52.9227 245.623C54.9309 249.253 57.9788 252.287 62.1037 254.674C81.8684 266.122 148.201 304.118 161.446 311.932C170.353 317.188 179.05 317.375 188.022 312.195C221.294 292.984 254.61 273.853 287.897 254.663C292.022 252.276 295.07 249.24 297.078 245.613L175.382 175.113Z" fill="#280068"/>
<path d="M299.987 117.608C299.985 112.883 298.975 108.709 296.931 105.126L175.382 175.113L297.078 245.613C299.029 242.084 299.998 237.99 300 233.368C300 233.368 300 156.202 299.987 117.608Z" fill="#390091"/>
<path d="M247.483 148.754V161.933H260.662V148.754H267.252V161.933H280.431V168.523H267.252V181.703H280.431V188.292H267.252V201.472H260.662V188.292H247.483V201.472H240.893V188.292H227.714V181.703H240.893V168.523H227.714V161.933H240.893V148.754H247.483ZM260.662 168.523H247.483V181.703H260.662V168.523Z" fill="white"/>
<path d="M175.651 82.5639C210.027 82.5639 240.041 101.233 256.116 128.983L255.96 128.716L215.514 152.005C207.545 138.512 192.937 129.407 176.179 129.22L175.651 129.217C150.096 129.217 129.378 149.934 129.378 175.488C129.378 183.846 131.606 191.679 135.481 198.445C143.457 212.37 158.451 221.761 175.651 221.761C192.958 221.761 208.037 212.25 215.972 198.177L215.78 198.515L256.164 221.911C240.265 249.426 210.663 268.038 176.686 268.409L175.651 268.414C141.167 268.414 111.068 249.63 95.0327 221.733C87.2045 208.114 82.7255 192.325 82.7255 175.488C82.7255 124.168 124.329 82.5639 175.651 82.5639Z" fill="white"/>
</svg>
