<svg width="1186" height="244" viewBox="0 0 1186 244" fill="none" xmlns="http://www.w3.org/2000/svg">
<path d="M396.814 81.9171C388.883 63.4676 375.816 47.8327 358.937 36.5778C350.498 30.9472 341.296 26.635 331.587 23.6919C321.691 20.5647 311.22 19.0016 300.5 19.0016C286.917 19.0016 273.658 21.5058 261.221 26.5072C260.589 26.7574 259.951 27.0077 259.381 27.258C259.003 27.4474 258.62 27.5698 258.303 27.7585C247.515 32.4488 237.62 38.9526 228.734 47.1427C225.947 49.7685 223.281 52.5238 220.804 55.3991C216.869 59.8392 212.557 65.1587 207.228 72.2253L204.433 75.8522C201.961 79.1626 178.929 112.434 174.803 118.499C173.216 120.873 171.376 123.5 169.412 126.255L165.986 131.066C161.989 136.697 157.231 143.012 152.596 148.893C150.44 151.58 148.284 154.145 146.444 156.271C144.665 158.335 143.017 159.959 141.877 161.023C136.926 165.713 131.213 169.279 124.936 171.783C118.461 174.409 111.546 175.723 104.501 175.723C99.6187 175.723 94.7975 175.094 90.1013 173.78C89.209 173.597 88.3848 173.346 87.4988 173.035C86.105 172.596 84.705 172.034 83.3104 171.472C73.5382 167.405 65.2294 160.712 59.3245 152.02C56.3439 147.642 53.9962 142.891 52.4711 138.011C50.8234 132.569 49.9992 127.317 49.9992 122.003C49.9992 114.809 51.4618 107.804 54.2501 101.117C58.3768 91.5472 65.2302 83.3508 74.0468 77.4762C78.3594 74.5994 83.187 72.3462 88.3231 70.783C93.6521 69.0974 99.1109 68.285 104.44 68.285C111.671 68.3459 118.592 69.6588 124.937 72.1567C131.281 74.7826 136.989 78.4102 141.878 82.9173C143.079 84.0408 144.666 85.7942 146.444 87.7293C149.616 91.4186 153.551 96.2367 157.672 101.678C158.434 102.68 159.135 103.614 159.896 104.616C166.111 95.5468 185.53 67.4656 188.195 63.9058L189.719 61.8413C187.879 59.5874 186.039 57.4012 184.198 55.3983C181.211 52.0217 178.801 49.4559 176.267 47.0804C166.75 38.2618 155.832 31.3854 143.842 26.5056C131.344 21.5034 118.085 19 104.502 19C90.3552 19 76.6501 21.7537 63.7676 27.1348C45.1788 34.8236 29.2549 47.7711 17.8287 64.4071C12.1816 72.5972 7.80731 81.666 4.63534 91.3585C1.58598 101.301 0 111.561 0 122.004C0 135.947 2.72663 149.395 8.18541 162.092C16.0552 180.474 29.122 196.108 46.0014 207.431C54.5025 212.994 63.7043 217.373 73.4132 220.371C83.4385 223.437 93.842 225 104.5 225C118.083 225 131.342 222.435 143.84 217.494C154.944 212.994 165.162 206.74 174.234 198.672C174.934 198.11 175.566 197.481 176.197 196.92C178.93 194.483 181.402 191.796 184.196 188.602C188.193 184.101 192.443 178.788 197.834 171.783L200.567 168.156C202.153 166.03 214.967 147.52 225.309 132.63C231.275 124.001 236.226 116.874 237.175 115.5L239.014 112.996C243.458 106.742 248.216 100.367 252.405 95.1078C254.561 92.4204 256.717 89.8562 258.557 87.7301C260.335 85.6664 261.984 84.0416 263.124 82.9789C268.012 78.4102 273.719 74.7826 280.002 72.2246C281.589 71.5954 283.175 71.0333 284.638 70.5936C286.156 70.1601 287.618 69.7812 289.204 69.4693C292.885 68.7185 296.627 68.3459 300.432 68.285C307.985 68.3459 315.154 69.7812 321.691 72.5356C331.463 76.5968 339.772 83.29 345.677 91.9807C348.719 96.3591 351.005 101.117 352.524 106.052C354.178 111.182 355.002 116.562 355.002 122.003C355.002 129.258 353.54 136.257 350.752 142.89C346.563 152.521 339.772 160.711 330.956 166.53C326.451 169.529 321.692 171.782 316.679 173.279C311.413 174.91 305.953 175.722 300.501 175.722C293.455 175.722 286.541 174.409 280.065 171.782C273.788 169.278 268.075 165.712 263.125 161.089C261.923 159.959 260.336 158.213 258.496 156.209C255.577 152.893 251.897 148.332 247.2 142.199C246.499 141.326 245.868 140.386 245.167 139.451C243.835 141.327 242.503 143.329 241.047 145.388C225.247 168.155 218.393 177.969 216.937 180.033L215.283 182.226C217.192 184.412 218.964 186.604 220.742 188.541C223.598 191.857 226.202 194.605 228.735 196.92C238.253 205.739 249.164 212.615 261.16 217.494C273.658 222.436 286.917 225 300.501 225C314.646 225 328.291 222.313 341.166 216.933C359.824 209.177 375.748 196.235 387.167 179.6C392.942 171.092 397.385 162.023 400.303 152.642C403.414 142.761 405 132.507 405 122.002C404.999 108.116 402.273 94.6128 396.814 81.9171Z" fill="black"/>
<path d="M480.566 201V22.25H492.566V190H574.816V201H480.566ZM610.379 201V38.75H621.879V201H610.379ZM749.662 46.5C731.162 46.5 715.579 53.5833 702.912 67.75C690.412 81.75 684.162 99 684.162 119.5C684.162 140 691.245 157.417 705.412 171.75C719.579 185.917 736.245 193 755.412 193C774.745 193 789.745 190.75 800.412 186.25V119.5H811.912V191.5C798.912 199.5 780.495 203.5 756.662 203.5C732.829 203.5 712.745 195.417 696.412 179.25C680.079 163.083 671.912 143.25 671.912 119.75C671.912 96.0833 679.245 76.25 693.912 60.25C708.745 44.25 727.829 36.25 751.162 36.25C769.995 36.25 788.412 39.1667 806.412 45L803.412 54.5C786.079 49.1667 768.162 46.5 749.662 46.5ZM990.732 201V119H877.982V201H866.482V38.75H877.982V108.75H990.732V38.75H1002.23V201H990.732ZM1091.28 49H1036.28V38.75H1157.53V49H1102.53V201H1091.28V49Z" fill="black"/>
</svg>
