<svg width="181" height="148" viewBox="0 0 181 148" fill="none" xmlns="http://www.w3.org/2000/svg">
<path d="M73.4216 76.6036C73.9308 67.5233 78.3701 59.5 85.0962 53.8308C91.6782 48.2577 100.518 44.8466 110.223 44.8466C119.88 44.8466 128.72 48.2529 135.302 53.8308C142.028 59.5 146.448 67.5233 146.977 76.6036C147.486 85.9241 143.734 94.62 137.176 101.058C130.45 107.592 120.937 111.724 110.223 111.724C99.5094 111.724 89.9487 107.621 83.2706 101.058C76.6886 94.62 72.9411 85.9722 73.4696 76.6517L73.4216 76.6036Z" fill="white"/>
<path d="M93.5511 75.4915C93.8128 70.8252 96.0941 66.7021 99.5506 63.7888C102.933 60.9249 107.476 59.1719 112.463 59.1719C117.426 59.1719 121.968 60.9224 125.351 63.7888C128.807 66.7021 131.079 70.8252 131.35 75.4915C131.612 80.2812 129.684 84.7499 126.314 88.0583C122.857 91.416 117.969 93.5393 112.463 93.5393C106.957 93.5393 102.044 91.4309 98.6124 88.0583C95.23 84.7499 93.3042 80.3059 93.5758 75.5162L93.5511 75.4915Z" fill="#265787"/>
<path d="M63.924 85.3672C63.9561 87.1942 64.5388 90.7494 65.4128 93.5146C67.2496 99.3907 70.3753 104.822 74.6959 109.587C79.14 114.501 84.621 118.451 90.9414 121.265C97.5828 124.203 104.792 125.709 112.273 125.709C119.754 125.7 126.963 124.169 133.604 121.191C139.925 118.352 145.406 114.402 149.85 109.464C154.195 104.65 157.306 99.2179 159.133 93.3419C160.059 90.3792 160.644 87.367 160.879 84.3549C161.108 81.3922 161.012 78.4048 160.59 75.4174C159.765 69.6155 157.751 64.1592 154.664 59.2213C151.85 54.6538 148.196 50.6788 143.85 47.3211L143.86 47.3137L100.16 13.7363C100.121 13.7067 100.089 13.6746 100.047 13.6474C97.1829 11.4451 92.3438 11.4525 89.2083 13.6597C86.0234 15.8917 85.653 19.5852 88.4923 21.9059L88.4799 21.9183L106.725 36.7566L51.1745 36.8158H51.1004C46.5082 36.8207 42.0888 39.8279 41.2247 43.6548C40.326 47.531 43.4467 50.7652 48.2365 50.7652L48.2291 50.7825L76.3748 50.7282L26.0088 89.2434C25.9446 89.2903 25.8754 89.3397 25.8162 89.3866C21.0758 93.0159 19.5451 99.0648 22.5325 102.867C25.5693 106.743 32.0132 106.768 36.8029 102.889L64.208 80.422C64.208 80.422 63.808 83.4587 63.8401 85.261L63.924 85.3672ZM134.535 95.5145C128.881 101.267 120.956 104.551 112.414 104.551C103.847 104.566 95.9213 101.341 90.2674 95.5886C87.5022 92.774 85.4777 89.5644 84.2186 86.1326C82.9915 82.7501 82.515 79.1702 82.8311 75.5656C83.1298 72.035 84.1815 68.6526 85.8678 65.6158C87.5171 62.6284 89.7934 59.9126 92.5833 57.6165C98.089 53.1478 105.076 50.7035 112.384 50.7035C119.717 50.6936 126.704 53.0959 132.21 57.5671C134.999 59.8484 137.271 62.5544 138.925 65.5417C140.611 68.5785 141.666 71.9363 141.962 75.4915C142.273 79.0961 141.796 82.6761 140.569 86.0585C139.315 89.515 137.286 92.7246 134.52 95.5392L134.535 95.5145Z" fill="#EA7600"/>
</svg>
