<?xml version="1.0" encoding="UTF-8"?>
<svg xmlns="http://www.w3.org/2000/svg" xmlns:xlink="http://www.w3.org/1999/xlink" viewBox="0 0 1401 1401">
  <defs>
    <style>
      .cls-1, .cls-2 {
        fill: #fff;
      }

      .cls-2 {
        stroke: #000;
        stroke-miterlimit: 10;
      }

      .cls-3 {
        fill: none;
      }

      .cls-4 {
        clip-path: url(#clippath);
      }
    </style>
    <clipPath id="clippath">
      <rect class="cls-3" x="126.48" y="519.42" width="1186" height="244"/>
    </clipPath>
  </defs>
  <g id="Layer_2" data-name="Layer 2">
    <rect class="cls-2" x=".5" y=".5" width="1400" height="1400"/>
  </g>
  <g id="Layer_1" data-name="Layer 1">
    <g class="cls-4">
      <g>
        <rect class="cls-1" x="126.48" y="519.42" width="1186" height="244"/>
        <path d="M523.29,601.34c-7.93-18.45-21-34.08-37.88-45.34-8.44-5.63-17.64-9.94-27.35-12.89-9.9-3.13-20.37-4.69-31.09-4.69-13.58,0-26.84,2.5-39.28,7.51-.63.25-1.27.5-1.84.75-.38.19-.76.31-1.08.5-10.79,4.69-20.68,11.19-29.57,19.38-2.79,2.63-5.45,5.38-7.93,8.26-3.93,4.44-8.25,9.76-13.58,16.83l-2.79,3.63c-2.47,3.31-25.5,36.58-29.63,42.65-1.59,2.37-3.43,5-5.39,7.76l-3.43,4.81c-4,5.63-8.75,11.95-13.39,17.83-2.16,2.69-4.31,5.25-6.15,7.38-1.78,2.06-3.43,3.69-4.57,4.75-4.95,4.69-10.66,8.26-16.94,10.76-6.47,2.63-13.39,3.94-20.43,3.94-4.88,0-9.7-.63-14.4-1.94-.89-.18-1.72-.43-2.6-.74-1.39-.44-2.79-1-4.19-1.56-9.77-4.07-18.08-10.76-23.99-19.45-2.98-4.38-5.33-9.13-6.85-14.01-1.65-5.44-2.47-10.69-2.47-16.01,0-7.19,1.46-14.2,4.25-20.89,4.13-9.57,10.98-17.77,19.8-23.64,4.31-2.88,9.14-5.13,14.28-6.69,5.33-1.69,10.79-2.5,16.12-2.5,7.23.06,14.15,1.37,20.5,3.87,6.34,2.63,12.05,6.25,16.94,10.76,1.2,1.12,2.79,2.88,4.57,4.81,3.17,3.69,7.11,8.51,11.23,13.95.76,1,1.46,1.94,2.22,2.94,6.21-9.07,25.63-37.15,28.3-40.71l1.52-2.06c-1.84-2.25-3.68-4.44-5.52-6.44-2.99-3.38-5.4-5.94-7.93-8.32-9.52-8.82-20.43-15.69-32.43-20.57-12.5-5-25.76-7.51-39.34-7.51s-27.85,2.75-40.73,8.13c-18.59,7.69-34.51,20.64-45.94,37.27-5.65,8.19-10.02,17.26-13.19,26.95-3.05,9.94-4.64,20.2-4.64,30.65,0,13.94,2.73,27.39,8.19,40.09,7.87,18.38,20.94,34.02,37.82,45.34,8.5,5.56,17.7,9.94,27.41,12.94,10.03,3.07,20.43,4.63,31.09,4.63,13.58,0,26.84-2.57,39.34-7.51,11.1-4.5,21.32-10.75,30.39-18.82.7-.56,1.33-1.19,1.96-1.75,2.73-2.44,5.2-5.12,8-8.32,4-4.5,8.25-9.81,13.64-16.82l2.73-3.63c1.59-2.13,14.4-20.64,24.74-35.53,5.97-8.63,10.92-15.76,11.87-17.13l1.84-2.5c4.44-6.25,9.2-12.63,13.39-17.89,2.16-2.69,4.31-5.25,6.15-7.38,1.78-2.06,3.43-3.69,4.57-4.75,4.89-4.57,10.6-8.2,16.88-10.75,1.59-.63,3.17-1.19,4.64-1.63,1.52-.43,2.98-.81,4.57-1.12,3.68-.75,7.42-1.12,11.23-1.18,7.55.06,14.72,1.5,21.26,4.25,9.77,4.06,18.08,10.75,23.99,19.45,3.04,4.38,5.33,9.14,6.85,14.07,1.65,5.13,2.48,10.51,2.48,15.95,0,7.25-1.46,14.25-4.25,20.89-4.19,9.63-10.98,17.82-19.8,23.64-4.51,3-9.26,5.25-14.28,6.75-5.27,1.63-10.73,2.44-16.18,2.44-7.05,0-13.96-1.31-20.44-3.94-6.28-2.5-11.99-6.07-16.94-10.69-1.2-1.13-2.79-2.88-4.63-4.88-2.92-3.32-6.6-7.88-11.3-14.01-.7-.87-1.33-1.81-2.03-2.75-1.33,1.88-2.66,3.88-4.12,5.94-15.8,22.77-22.65,32.58-24.11,34.65l-1.65,2.19c1.91,2.19,3.68,4.38,5.46,6.32,2.86,3.32,5.46,6.06,7.99,8.38,9.52,8.82,20.43,15.7,32.43,20.57,12.5,4.94,25.76,7.51,39.34,7.51s27.79-2.69,40.66-8.07c18.66-7.76,34.58-20.7,46-37.33,5.77-8.51,10.22-17.58,13.14-26.96,3.11-9.88,4.7-20.13,4.7-30.64,0-13.89-2.73-27.39-8.19-40.08Z"/>
        <path d="M607.04,720.42v-178.75h12v167.75h82.25v11h-94.25ZM736.85,720.42v-162.25h11.5v162.25h-11.5ZM876.14,565.92c-18.5,0-34.08,7.08-46.75,21.25-12.5,14-18.75,31.25-18.75,51.75s7.08,37.92,21.25,52.25c14.17,14.17,30.83,21.25,50,21.25s34.33-2.25,45-6.75v-66.75h11.5v72c-13,8-31.42,12-55.25,12s-43.92-8.08-60.25-24.25-24.5-36-24.5-59.5,7.33-43.5,22-59.5c14.83-16,33.92-24,57.25-24,18.83,0,37.25,2.92,55.25,8.75l-3,9.5c-17.33-5.33-35.25-8-53.75-8ZM1117.21,720.42v-82h-112.75v82h-11.5v-162.25h11.5v70h112.75v-70h11.5v162.25h-11.5ZM1217.76,568.42h-55v-10.25h121.25v10.25h-55v152h-11.25v-152Z"/>
      </g>
    </g>
  </g>
</svg>