<svg width="64" height="64" viewBox="0 0 64 64" fill="none" xmlns="http://www.w3.org/2000/svg">
<path d="M63 9H1V51H63V9Z" fill="#111111"/>
<path d="M1 9V51H27V59H39V51H63V9H1ZM60 48H4V12H60V48Z" fill="#A3AEB5"/>
<path d="M39 51H27V54H39V51Z" fill="#788287"/>
<path d="M64 52V8H0V52H26V58H24V60H42V58H40V52H64ZM2 50V10H62V50H2ZM38 58H28V52H38V58Z" fill="#111111"/>
<path d="M18 20H12V18H18V20ZM14 22V24H20V22H14ZM14 36H20V34H14V36ZM12 40H18V38H12V40Z" fill="#4398C9"/>
<path d="M44 26V28H16V26H44ZM16 32H44V30H16V32Z" fill="#98C1D9"/>
<path d="M34 24H22V22H34V24ZM42 18H20V20H42V18Z" fill="#ABD9F4"/>
</svg>
